<?xml version="1.0" standalone="no"?>
<!DOCTYPE svg PUBLIC "-//W3C//DTD SVG 20010904//EN"
 "http://www.w3.org/TR/2001/REC-SVG-20010904/DTD/svg10.dtd">
<svg version="1.0" xmlns="http://www.w3.org/2000/svg"
 width="1108.000000pt" height="1108.000000pt" viewBox="0 0 1108.000000 1108.000000"
 preserveAspectRatio="xMidYMid meet">
<metadata>
Created by potrace 1.16, written by Peter Selinger 2001-2019
</metadata>
<g transform="translate(0.000000,1108.000000) scale(0.100000,-0.100000)"
fill="#ffo" stroke="none">
<path d="M11060 11070 c0 -5 5 -10 10 -10 6 0 10 5 10 10 0 6 -4 10 -10 10 -5
0 -10 -4 -10 -10z"/>
<path d="M4530 10923 c-25 -2 -128 -8 -230 -13 -251 -13 -488 -43 -645 -80
-71 -17 -153 -35 -182 -40 -28 -5 -68 -13 -90 -19 -21 -6 -76 -20 -123 -31
-47 -11 -116 -29 -155 -40 -46 -13 -99 -20 -157 -20 -81 0 -91 -2 -162 -40
-42 -21 -106 -61 -142 -87 -37 -26 -85 -61 -108 -77 -22 -16 -57 -43 -77 -60
-19 -17 -62 -53 -95 -81 -101 -85 -323 -319 -374 -396 -14 -20 -51 -75 -84
-121 -32 -45 -74 -114 -93 -151 -30 -58 -34 -75 -29 -111 6 -38 4 -45 -23 -69
-33 -29 -78 -154 -106 -294 -9 -43 -25 -103 -35 -133 -63 -186 -88 -329 -96
-555 -9 -247 20 -362 125 -500 25 -33 78 -103 117 -155 68 -91 340 -368 395
-404 27 -17 27 -17 32 -179 5 -193 52 -449 87 -479 11 -9 20 -20 20 -25 0 -5
-30 -31 -67 -58 -161 -118 -358 -281 -438 -365 -179 -186 -272 -314 -360 -490
-31 -63 -38 -88 -42 -155 -5 -98 5 -119 74 -161 59 -35 277 -103 366 -114 34
-4 63 -12 65 -19 6 -19 38 30 46 71 5 30 76 131 116 168 3 3 15 18 27 33 65
85 379 406 472 483 19 16 55 51 80 78 69 74 358 292 421 317 14 6 32 16 40 24
8 7 58 37 110 65 144 80 184 100 196 100 7 0 14 7 18 15 3 8 12 15 20 15 8 0
21 6 28 13 21 20 186 93 194 85 1 -2 5 -80 8 -173 2 -94 9 -195 14 -225 6 -30
13 -78 16 -107 6 -49 5 -54 -26 -86 -49 -50 -251 -196 -373 -269 -113 -68
-428 -229 -475 -243 -14 -4 -50 -20 -80 -36 -30 -16 -80 -37 -110 -47 -30 -11
-64 -23 -74 -27 -18 -8 -19 -5 -13 39 4 27 14 69 23 94 8 25 21 75 29 111 8
37 21 86 30 111 18 49 46 192 39 199 -8 8 -23 -14 -39 -59 -60 -169 -114 -346
-149 -485 -47 -190 -83 -709 -65 -954 17 -248 29 -372 43 -471 15 -101 33
-181 93 -418 15 -58 15 -69 -2 -160 -9 -53 -21 -102 -26 -107 -4 -6 -11 -60
-15 -120 -4 -63 -12 -116 -19 -125 -8 -9 -15 -65 -19 -140 -4 -69 -14 -161
-22 -205 -20 -116 -19 -744 1 -937 42 -394 82 -593 174 -875 33 -99 120 -303
130 -303 3 0 12 -13 19 -29 7 -16 31 -49 52 -74 54 -61 53 -82 -3 -56 -32 15
-168 154 -201 208 -20 32 -31 40 -39 32 -20 -20 70 -171 138 -229 83 -72 226
-122 254 -88 11 13 1 28 -68 108 -58 67 -95 121 -131 193 -61 124 -118 261
-126 306 -4 19 -11 42 -16 52 -9 17 -54 216 -65 287 -6 41 29 260 59 369 11
42 33 128 49 191 60 249 163 581 230 742 16 39 29 75 29 79 0 5 11 32 24 61
14 29 39 87 56 128 48 115 81 180 93 180 5 0 7 -13 4 -33 -23 -126 -27 -164
-27 -263 0 -68 6 -129 15 -160 9 -30 18 -134 24 -269 9 -194 30 -380 60 -540
6 -27 15 -81 21 -120 10 -63 41 -204 69 -310 l10 -40 -4 45 c-12 111 -24 222
-35 310 -21 162 11 496 70 754 30 129 100 366 118 401 9 17 27 61 41 99 18 47
33 71 47 77 21 7 22 5 29 -134 14 -274 48 -623 75 -765 11 -57 20 -114 20
-127 0 -13 6 -44 14 -67 8 -24 17 -56 20 -72 5 -19 11 -25 17 -19 6 6 4 44 -5
109 -9 54 -24 187 -35 294 -11 107 -28 265 -36 350 -22 205 -33 516 -23 596
10 75 -1 107 -35 102 -17 -2 -23 -12 -27 -43 -3 -22 -15 -60 -27 -85 -82 -174
-103 -220 -103 -232 0 -8 -4 -18 -9 -24 -12 -12 -56 -144 -97 -289 -45 -158
-74 -311 -74 -391 0 -36 -4 -64 -10 -64 -5 0 -10 8 -10 19 0 10 -7 36 -16 56
-35 85 -42 612 -10 770 18 91 22 270 5 280 -21 13 -58 -39 -122 -169 -88 -179
-117 -242 -117 -251 0 -4 -14 -38 -31 -74 -34 -70 -96 -226 -131 -326 -11 -33
-24 -68 -29 -77 -5 -10 -9 -26 -9 -35 0 -10 -6 -30 -14 -44 -7 -14 -16 -43
-20 -65 -5 -21 -12 -44 -16 -49 -8 -9 -23 -66 -80 -295 -10 -41 -26 -122 -36
-180 -9 -58 -18 -106 -19 -108 -2 -2 -12 12 -23 30 -30 50 -57 410 -56 738 2
365 19 674 38 702 10 14 16 44 16 78 0 30 7 89 16 130 8 41 19 93 22 114 8 47
18 39 50 -49 13 -33 29 -71 37 -85 8 -14 20 -37 26 -52 6 -16 15 -28 19 -28 5
0 11 -8 13 -17 3 -10 2 5 -1 32 -3 28 -11 67 -19 89 -7 21 -13 47 -13 56 0 10
-6 31 -14 47 -23 44 -46 133 -49 190 -2 34 -10 60 -22 73 -11 12 -22 44 -26
73 -4 29 -17 102 -28 162 -33 175 -61 414 -72 629 -11 196 -6 310 21 551 5 44
13 123 19 176 12 117 16 128 50 135 14 2 60 13 101 24 55 13 101 17 174 15 97
-3 103 -2 260 50 145 48 208 73 359 145 26 12 50 21 52 18 5 -5 -18 -84 -35
-123 -5 -11 -19 -49 -30 -85 -12 -36 -26 -69 -31 -75 -5 -5 -9 -19 -9 -32 0
-19 -5 -23 -30 -23 -16 0 -30 4 -30 9 0 4 -19 11 -42 15 -24 3 -58 9 -75 12
-18 3 -33 2 -33 -3 0 -13 66 -43 95 -43 14 0 25 -4 25 -10 0 -5 16 -10 35 -10
30 0 35 -3 35 -24 0 -13 -7 -29 -15 -36 -9 -7 -14 -19 -11 -26 3 -7 -3 -37
-13 -66 -16 -47 -38 -144 -71 -313 -8 -44 -29 -200 -60 -451 -6 -44 -10 -102
-11 -130 0 -27 -6 -83 -13 -124 l-12 -75 -12 50 c-6 28 -16 79 -22 115 -6 36
-17 99 -25 140 -31 164 -48 396 -35 475 12 70 0 257 -16 262 -10 3 -25 -43
-44 -137 -27 -133 -70 -332 -83 -385 -18 -70 -74 -379 -83 -447 -6 -52 -23
-66 -25 -20 -3 88 20 342 33 357 4 5 8 29 9 55 0 25 6 79 14 120 8 41 26 156
40 255 14 99 31 193 37 210 12 30 15 241 4 253 -15 14 -28 -21 -37 -94 -6 -42
-12 -81 -15 -86 -3 -4 -14 -63 -24 -130 -10 -68 -28 -175 -40 -238 -11 -63
-27 -167 -35 -230 -8 -63 -21 -167 -30 -230 -25 -184 -33 -380 -24 -600 5
-113 13 -327 18 -475 5 -149 15 -299 22 -335 l14 -65 6 85 c4 47 7 150 8 230
1 80 6 197 11 260 5 63 12 144 15 180 9 102 25 242 30 249 2 4 11 59 19 122 8
63 25 157 37 209 32 143 38 170 49 230 5 30 17 84 27 120 l18 65 6 -90 c9
-116 18 -191 29 -235 5 -19 19 -80 30 -135 20 -92 29 -125 50 -180 4 -11 17
-49 29 -85 63 -184 88 -244 103 -254 30 -18 32 2 10 92 -16 64 -22 124 -24
227 -4 241 1 405 12 405 6 0 13 -8 16 -17 3 -10 13 -33 22 -51 14 -26 14 -36
4 -52 -6 -11 -12 -29 -12 -41 0 -16 4 -19 18 -14 48 20 49 19 110 -87 33 -56
74 -124 91 -151 47 -75 85 -178 73 -197 -47 -66 -130 -224 -135 -255 -8 -46
22 -107 62 -127 14 -7 60 -33 101 -56 41 -24 82 -48 90 -52 8 -5 48 -26 89
-47 59 -30 79 -46 100 -81 30 -50 107 -166 126 -191 7 -9 33 -41 57 -71 34
-42 64 -66 129 -100 46 -25 119 -68 161 -96 89 -60 133 -81 241 -119 43 -15
149 -56 235 -92 86 -35 181 -73 211 -84 72 -27 211 -95 346 -168 178 -98 214
-114 240 -107 13 3 66 29 116 56 51 28 99 50 108 50 18 0 61 -58 60 -81 -2
-38 -36 -74 -85 -87 -183 -49 -249 -72 -374 -127 -154 -68 -193 -89 -315 -172
-168 -115 -225 -179 -225 -253 0 -55 49 -119 138 -179 57 -40 40 -60 -53 -61
-27 0 -59 -1 -70 -2 -11 0 -51 2 -90 6 -38 4 -75 3 -81 -1 -14 -10 -49 -117
-70 -213 -26 -125 -44 -446 -33 -590 10 -123 51 -352 67 -374 5 -6 14 -27 22
-46 19 -52 100 -212 118 -232 14 -17 48 -18 454 -18 285 0 438 3 438 10 0 6
-6 10 -12 10 -9 0 -10 2 -2 8 19 12 86 153 80 169 -3 8 -1 23 5 34 6 11 14 41
19 67 16 89 31 137 49 162 10 14 22 36 26 49 9 28 22 17 27 -23 5 -44 28 -46
28 -2 0 38 16 49 27 19 4 -10 17 -32 30 -50 19 -25 23 -39 18 -65 -9 -46 9
-59 90 -66 56 -4 65 -2 65 12 0 9 8 16 17 16 10 0 26 9 38 19 74 70 105 105
105 118 0 14 37 52 53 53 4 0 7 -7 7 -16 0 -8 5 -12 10 -9 8 5 7 11 -1 21 -9
11 -8 19 7 37 46 55 89 97 100 97 7 0 22 14 34 30 15 21 30 30 49 30 15 0 32
5 38 11 9 9 17 3 33 -25 12 -20 26 -36 32 -36 10 0 1 39 -13 54 -13 15 -11 26
6 26 16 0 85 -86 85 -107 0 -8 9 -31 19 -51 34 -64 91 -191 91 -203 0 -6 -8
-8 -19 -4 -15 4 -20 0 -23 -17 l-3 -23 -148 4 c-91 2 -157 0 -170 -7 -41 -19
-89 -32 -100 -25 -6 4 -8 -2 -4 -17 5 -18 -5 -39 -43 -91 -28 -36 -50 -72 -50
-78 0 -18 -20 -12 -21 7 -1 9 -6 0 -11 -21 -6 -20 -23 -51 -38 -68 -60 -63
-182 -59 1645 -59 1603 0 1663 1 1658 18 -2 10 17 70 42 133 26 63 94 229 150
369 176 436 211 521 265 645 92 210 92 211 96 325 2 58 6 128 9 155 l7 50 -26
-37 c-14 -20 -26 -40 -26 -43 0 -7 -120 -293 -165 -395 -19 -41 -59 -133 -91
-205 -60 -138 -138 -309 -154 -337 -6 -10 -10 -23 -10 -29 0 -11 -64 -140
-105 -214 l-17 -30 6 35 c15 91 30 138 102 315 42 105 89 222 105 260 42 107
101 246 168 400 51 114 89 235 75 235 -1 0 -13 -18 -25 -40 -12 -22 -39 -51
-58 -64 -20 -13 -52 -38 -71 -55 -19 -17 -38 -31 -42 -31 -4 0 -30 -14 -58
-31 -73 -45 -216 -88 -323 -98 -51 -5 -95 -7 -99 -4 -20 11 -47 -22 -68 -86
-13 -39 -32 -80 -42 -93 l-18 -23 1 30 c0 17 8 55 19 85 23 64 25 99 8 104
-81 20 -194 66 -240 97 -31 21 -62 39 -68 39 -5 0 -10 3 -10 8 0 4 -32 31 -70
61 -39 29 -80 67 -92 85 -12 17 -49 65 -83 106 -34 43 -87 129 -124 203 -58
115 -91 155 -91 111 0 -53 -102 -307 -134 -333 -8 -7 -20 -28 -26 -47 -6 -19
-16 -34 -21 -34 -17 0 -9 67 10 89 10 11 24 42 30 69 20 80 68 234 91 292 12
30 25 79 28 109 5 39 12 57 27 65 28 15 35 27 35 59 l0 27 -147 1 c-186 2
-181 2 -207 -28 -20 -23 -25 -24 -45 -13 -37 19 -61 5 -153 -88 -64 -65 -88
-96 -88 -114 0 -14 -6 -31 -14 -37 -13 -11 -21 -30 -71 -171 -136 -383 -219
-590 -237 -590 -24 0 8 124 92 355 28 77 60 167 72 200 11 33 24 64 29 69 9
10 13 46 5 46 -8 0 -93 -59 -104 -72 -5 -7 -15 -33 -22 -58 -27 -107 -134
-399 -178 -490 -16 -33 -62 -56 -62 -31 0 51 89 306 148 428 35 71 21 85 -42
43 -48 -33 -66 -56 -66 -86 0 -19 -45 -170 -65 -219 -7 -16 -22 -59 -35 -95
-13 -36 -29 -72 -37 -81 -7 -8 -13 -20 -13 -25 0 -6 -14 -23 -30 -39 -26 -25
-32 -27 -40 -15 -14 22 -12 113 4 162 8 24 24 81 36 128 12 47 28 92 36 101
23 26 18 52 -8 46 -215 -51 -318 -58 -486 -32 -136 21 -135 21 -155 54 -22 38
-21 105 3 159 39 86 167 228 237 263 16 8 99 62 185 122 176 120 218 137 167
66 -32 -45 -11 -35 79 37 91 72 189 190 302 359 40 61 92 135 115 165 22 30
53 75 67 100 14 25 56 89 92 143 36 54 66 100 66 102 0 23 92 136 194 238 126
127 191 178 303 237 60 31 150 117 289 274 130 146 508 447 759 605 101 63
121 68 117 29 -1 -16 0 -28 3 -28 11 0 54 55 120 152 37 53 75 100 85 103 10
3 21 16 24 28 7 28 145 199 222 274 93 91 176 199 239 312 60 106 135 263 162
338 8 23 21 47 29 54 8 6 14 19 14 28 0 9 6 25 14 36 7 11 35 61 61 110 26 50
53 97 59 105 7 8 18 28 26 44 31 61 228 237 362 323 33 21 37 53 8 53 -24 0
-117 -51 -180 -98 -149 -112 -237 -233 -375 -517 -51 -104 -102 -215 -114
-246 -12 -31 -31 -66 -42 -77 -10 -12 -19 -27 -19 -35 0 -46 -150 -266 -198
-291 -32 -16 -129 -118 -174 -181 -65 -92 -144 -185 -156 -185 -8 0 -46 28
-86 62 -40 35 -108 92 -151 128 -44 36 -181 165 -305 287 -264 260 -260 257
-265 252 -2 -3 17 -27 43 -54 26 -27 54 -59 62 -71 28 -40 346 -359 436 -436
171 -148 190 -163 213 -178 17 -12 22 -21 17 -36 -10 -34 -75 -93 -166 -152
-47 -31 -129 -89 -182 -128 -143 -107 -128 -105 -201 -37 -118 110 -293 288
-352 359 -33 39 -69 82 -80 95 -11 13 -31 40 -45 60 -14 20 -60 82 -102 138
-43 56 -90 123 -105 148 -15 26 -29 41 -31 35 -2 -6 23 -50 55 -99 31 -48 63
-99 69 -113 7 -14 27 -46 46 -72 18 -26 46 -66 63 -90 30 -43 96 -128 158
-202 39 -47 43 -56 24 -56 -29 0 -187 187 -395 468 -29 41 -56 71 -59 68 -11
-11 105 -192 249 -386 47 -64 179 -200 193 -200 7 0 15 -6 18 -13 6 -15 176
-130 252 -170 27 -15 58 -27 67 -27 32 0 19 -17 -54 -77 -115 -92 -128 -99
-224 -122 -113 -26 -131 -26 -230 0 -43 11 -86 22 -94 23 -8 1 -34 14 -57 29
-46 29 -58 32 -68 17 -13 -21 27 -72 71 -91 24 -11 44 -24 44 -29 0 -6 10 -10
23 -11 12 0 31 -5 42 -10 15 -7 10 -8 -20 -5 -61 7 -134 24 -168 41 -17 8 -35
15 -42 15 -9 0 -11 57 -7 229 6 293 -12 481 -79 832 -10 53 -9 60 16 107 15
28 30 52 35 54 22 8 90 268 115 441 3 20 11 37 17 37 21 0 203 -93 238 -122
19 -15 45 -28 59 -28 13 0 60 -15 105 -34 127 -54 383 -139 534 -176 35 -9 46
-18 57 -43 7 -18 31 -52 52 -77 21 -25 58 -72 83 -105 56 -76 234 -255 255
-255 8 0 15 4 15 8 0 15 -55 86 -131 169 -119 128 -204 233 -207 255 -3 17 0
20 21 14 73 -18 351 -36 461 -30 131 7 230 27 186 37 -14 3 -70 8 -125 11
-197 10 -366 50 -583 137 -160 64 -177 74 -198 122 -10 21 -55 96 -101 165
-62 95 -81 132 -76 147 4 11 7 106 8 210 0 138 6 216 19 284 27 143 35 162 76
176 74 26 169 92 256 179 112 111 262 298 305 380 18 34 52 89 75 123 24 34
44 64 44 67 0 4 23 42 50 86 28 44 50 82 50 84 0 3 30 67 67 143 56 117 67
148 70 203 5 71 2 76 -133 280 -166 250 -432 559 -590 685 -27 22 -78 65 -114
95 -130 111 -450 329 -575 393 -39 19 -105 56 -148 81 -43 25 -81 46 -85 46
-5 0 -33 15 -63 33 -30 18 -103 54 -164 80 -60 27 -148 68 -195 91 -47 24
-129 63 -182 86 -53 23 -137 65 -185 94 -116 68 -207 111 -387 180 -61 24
-235 106 -386 183 -515 261 -858 371 -1395 447 -319 45 -878 75 -1095 59z
m-600 -977 c6 -8 23 -16 38 -18 16 -2 28 -10 30 -21 6 -29 -5 -46 -26 -40 -27
7 -82 59 -82 77 0 20 24 21 40 2z m119 -364 c-40 -83 -77 -96 -127 -47 -28 26
-36 90 -13 90 8 0 18 -14 23 -31 5 -20 16 -34 30 -37 28 -8 38 -1 38 27 0 13
9 31 20 41 11 10 20 23 20 30 0 6 6 17 13 24 23 23 20 -46 -4 -97z m-799 57
c164 -20 259 -49 299 -93 54 -58 22 -153 -219 -651 -43 -88 -86 -171 -97 -184
-17 -21 -21 -22 -44 -10 -47 27 -69 52 -69 80 0 31 -11 43 -110 125 -36 29
-76 69 -90 88 -14 19 -35 40 -48 47 -32 18 -21 35 19 31 47 -5 121 -47 191
-109 32 -29 63 -53 68 -53 4 0 11 30 15 68 6 61 17 113 47 227 24 93 111 185
175 185 31 0 29 -14 -12 -71 -46 -65 -83 -156 -110 -274 -3 -16 -22 -65 -41
-108 -34 -77 -42 -121 -25 -131 4 -3 15 2 23 12 13 15 108 205 108 216 0 3 16
39 35 80 19 42 35 78 35 81 0 3 14 35 31 72 57 125 89 202 89 214 0 11 -79 51
-150 75 -67 23 -308 27 -334 5 -13 -11 -14 -35 -10 -153 6 -149 1 -168 -38
-147 -26 14 -45 56 -53 119 -9 74 -14 90 -30 90 -13 0 -24 -19 -65 -117 -12
-29 -26 -53 -31 -53 -5 0 -9 -8 -9 -18 0 -31 -41 -152 -50 -147 -5 3 -4 17 0
33 5 15 14 52 21 82 7 30 16 62 20 70 5 8 17 33 27 55 29 60 68 133 79 147 5
7 18 36 28 63 29 80 26 78 140 71 55 -4 138 -11 185 -17z m594 -457 c10 -2 36
10 57 28 22 17 47 29 55 26 47 -18 -41 -182 -120 -223 -26 -13 -30 -13 -45 1
-20 20 -21 164 -1 211 l12 30 13 -35 c6 -19 20 -37 29 -38z m-1047 -189 c91
-108 94 -124 14 -72 -68 45 -78 68 -71 164 l2 40 9 -44 c5 -27 23 -60 46 -88z
m3393 -213 c138 -11 255 -22 259 -25 5 -2 62 -9 127 -15 132 -13 480 -78 619
-116 374 -103 611 -201 925 -383 80 -46 159 -91 175 -100 66 -35 282 -190 359
-257 45 -39 110 -104 145 -145 35 -41 68 -75 72 -77 5 -2 25 -27 46 -55 20
-29 60 -80 88 -114 27 -34 70 -90 95 -124 25 -34 70 -94 101 -133 48 -61 58
-81 69 -139 12 -64 7 -157 -8 -157 -4 0 -36 34 -72 75 -71 82 -179 184 -305
286 -79 64 -104 81 -236 169 -38 25 -127 84 -198 133 -71 48 -131 87 -134 87
-2 0 -53 29 -112 65 -59 36 -113 65 -120 65 -8 0 -16 4 -19 9 -7 11 -285 149
-406 201 -128 55 -355 141 -471 178 -121 39 -419 116 -529 137 -215 41 -305
55 -440 69 -80 9 -183 20 -230 26 -132 15 -482 21 -620 11 -221 -17 -473 -40
-550 -51 -473 -68 -1159 -251 -1305 -350 -22 -15 -85 -51 -140 -80 -151 -80
-185 -99 -305 -172 -60 -38 -112 -68 -114 -68 -3 0 -42 -23 -88 -51 -254 -155
-488 -379 -544 -519 -23 -56 -32 -38 -40 81 -15 215 32 302 254 477 126 98
216 183 247 232 17 26 47 47 121 85 55 27 140 71 189 99 228 125 703 360 811
400 307 115 528 169 879 216 293 38 406 45 866 48 212 1 352 -3 539 -18z
m-3326 -156 c3 -9 6 -29 6 -45 0 -21 -4 -27 -15 -23 -10 4 -15 20 -15 45 0 40
13 52 24 23z m26 -105 c0 -18 -5 -20 -47 -17 -50 3 -61 18 -21 30 47 13 68 9
68 -13z m3400 -223 c160 -20 298 -42 380 -61 387 -87 643 -164 970 -290 172
-66 415 -198 625 -338 33 -22 100 -67 150 -100 49 -33 111 -76 137 -96 26 -20
68 -52 95 -71 26 -19 75 -57 108 -85 33 -28 77 -63 97 -78 107 -79 358 -339
358 -372 0 -18 -21 -65 -29 -65 -3 0 -58 52 -121 116 -140 141 -302 267 -488
378 -160 96 -418 215 -562 261 -30 9 -121 47 -201 85 -157 73 -261 109 -476
166 -456 120 -918 199 -1363 234 -317 25 -998 11 -1245 -26 -584 -86 -984
-190 -1340 -348 -149 -66 -183 -82 -200 -93 -246 -160 -311 -205 -370 -257
-108 -94 -209 -199 -269 -279 -54 -74 -149 -167 -169 -167 -6 0 -19 -7 -29
-17 -10 -9 -20 -14 -23 -11 -3 3 -1 37 5 77 13 95 86 249 172 361 114 151 396
384 628 521 58 34 142 83 188 110 86 51 209 101 397 162 162 52 334 104 385
117 25 6 70 18 100 26 59 16 95 23 257 53 56 11 111 22 121 25 36 12 313 47
557 71 198 19 979 13 1155 -9z m-252 -431 c217 -19 602 -73 765 -109 64 -14
170 -37 235 -51 307 -66 523 -125 812 -222 249 -83 612 -277 860 -458 208
-152 456 -380 446 -412 -2 -10 -7 -67 -11 -128 -9 -167 -15 -220 -26 -204 -4
8 -11 34 -15 59 -18 128 -97 306 -171 386 -143 152 -560 405 -978 594 -182 82
-489 192 -690 246 -296 80 -490 98 -958 90 -237 -3 -345 -2 -363 6 -29 13
-785 -6 -849 -22 -58 -14 -223 -38 -350 -50 -60 -6 -157 -17 -215 -25 -58 -8
-161 -22 -230 -31 -69 -8 -165 -24 -215 -34 -49 -10 -110 -22 -135 -25 -25 -4
-97 -21 -160 -37 -63 -17 -131 -34 -150 -38 -19 -5 -66 -18 -105 -30 -38 -12
-86 -26 -105 -32 -31 -9 -124 -43 -187 -69 -13 -5 -33 -13 -45 -18 -114 -45
-165 -65 -173 -72 -19 -13 -248 -129 -257 -129 -23 0 0 24 82 86 107 81 219
158 287 197 26 15 64 37 83 49 169 104 697 303 935 352 39 8 83 20 98 25 16 6
40 11 55 11 15 0 63 9 107 20 44 11 97 20 118 20 21 0 82 9 135 19 53 11 162
25 242 31 80 6 156 13 170 14 14 2 194 4 400 5 263 1 430 -4 558 -14z m567
-245 c200 -14 297 -26 440 -56 219 -46 594 -161 648 -199 11 -8 59 -63 106
-123 155 -196 359 -446 397 -487 21 -22 58 -62 82 -90 174 -198 592 -587 742
-692 90 -62 247 -160 320 -200 67 -36 236 -107 314 -130 49 -15 45 -35 -6 -27
-64 9 -348 82 -385 99 -17 8 -36 15 -43 15 -21 0 -194 61 -310 110 -316 133
-522 251 -725 419 -53 45 -100 81 -104 81 -4 0 -29 22 -56 50 -28 27 -56 50
-62 50 -18 0 -17 -5 12 -49 25 -36 44 -83 86 -201 10 -30 23 -64 28 -75 7 -17
152 -466 195 -605 8 -25 24 -94 35 -155 12 -60 28 -146 37 -190 42 -208 54
-338 54 -575 0 -227 -9 -340 -44 -563 -7 -49 -17 -92 -22 -96 -5 -4 -49 -38
-99 -76 -49 -38 -94 -75 -98 -82 -17 -28 -27 -11 -27 46 0 32 -13 157 -29 278
-17 120 -33 243 -36 274 -7 60 -45 123 -63 104 -6 -5 -12 -86 -15 -180 -3 -93
-12 -217 -21 -275 -35 -226 -35 -227 -77 -370 -26 -89 -129 -328 -167 -385 -7
-11 -50 -84 -97 -162 -86 -144 -203 -325 -288 -443 -74 -103 -181 -260 -195
-285 -15 -28 -80 -85 -119 -105 -47 -24 -227 -141 -249 -162 -44 -40 -40 -3
28 222 17 58 55 177 85 265 30 88 72 216 93 285 20 69 63 204 95 300 104 320
133 432 103 402 -10 -10 -47 -116 -224 -642 -25 -74 -54 -146 -66 -160 l-20
-25 6 25 c14 53 25 202 28 360 4 261 -15 520 -72 990 -11 96 -25 209 -30 250
-5 41 -10 140 -11 220 -1 107 -6 152 -17 171 -14 26 -13 31 33 115 26 49 62
116 80 149 34 63 50 131 36 153 -5 8 -12 -2 -21 -30 -46 -147 -152 -342 -272
-499 -71 -95 -145 -175 -153 -167 -3 3 18 46 46 97 161 292 222 656 164 979
-17 93 -67 290 -90 352 -9 25 -24 71 -33 103 -16 55 -16 60 7 149 24 96 50
145 95 187 28 27 34 51 12 51 -8 0 -45 -24 -83 -54 -84 -64 -91 -67 -125 -50
-28 14 -38 32 -79 139 -23 59 -54 123 -98 199 -12 21 -20 44 -18 50 3 6 31 22
63 36 105 43 154 80 107 80 -18 0 -195 -64 -223 -80 -8 -5 -52 -32 -98 -59
-46 -28 -91 -51 -101 -51 -15 0 -124 105 -369 358 -50 50 -93 92 -96 92 -3 0
-6 -9 -6 -21 0 -28 40 -119 52 -119 6 0 7 -11 4 -24 -4 -15 3 -42 17 -73 37
-79 138 -265 169 -310 15 -23 28 -48 28 -56 0 -17 -55 -67 -73 -67 -25 0 -213
196 -322 337 -105 136 -204 281 -239 351 -12 23 -23 32 -41 32 -30 0 -45 -26
-45 -77 0 -41 -13 -72 -24 -55 -3 5 -6 36 -6 68 0 33 0 70 -1 84 -3 66 -2 88
6 106 4 10 7 26 6 36 -1 9 3 19 9 23 5 3 10 19 10 34 0 38 10 44 110 71 47 12
112 31 145 41 33 10 98 28 145 40 47 12 94 25 105 30 11 5 70 20 130 34 61 14
126 30 145 35 86 22 128 30 170 32 147 9 436 8 565 -2z m-1564 -375 c-1 -55
-4 -125 -6 -155 -2 -30 3 -90 12 -134 17 -85 13 -147 -12 -200 -15 -32 -27
-84 -44 -201 -5 -33 -13 -71 -19 -85 -5 -14 -15 -59 -21 -100 -7 -41 -18 -106
-26 -145 -28 -142 -35 -194 -51 -350 -9 -88 -17 -171 -18 -185 -2 -36 -19 -62
-38 -55 -20 8 -34 79 -48 245 -6 74 -15 151 -20 170 -5 19 -12 178 -16 353 -6
285 -13 353 -28 300 -2 -10 -7 -157 -11 -328 -5 -286 -13 -377 -35 -430 -27
-64 -59 -155 -65 -185 -4 -19 -11 -41 -15 -50 -4 -8 -22 -55 -40 -104 -18 -49
-43 -110 -55 -134 -18 -36 -24 -41 -29 -26 -8 27 -26 228 -26 292 0 38 -4 54
-15 58 -13 5 -15 37 -16 193 0 102 -4 209 -8 236 -6 43 -8 32 -15 -80 -13
-194 -1 -497 24 -640 31 -178 40 -234 47 -298 3 -32 10 -60 14 -63 5 -3 9 -15
9 -26 0 -12 13 -62 29 -112 16 -50 33 -113 37 -141 6 -45 38 -105 55 -105 4 0
-6 48 -23 108 -16 59 -33 125 -37 147 -5 22 -19 82 -30 134 -27 123 -27 171 3
240 32 72 146 388 146 402 0 21 54 119 65 119 9 0 14 -41 19 -137 4 -76 14
-158 22 -182 20 -58 8 -70 -48 -48 -33 13 -44 14 -50 4 -4 -6 -6 -16 -5 -22 5
-15 49 -35 77 -35 38 0 70 -27 70 -58 0 -27 59 -226 65 -220 2 2 5 81 7 176 3
199 -2 187 108 242 85 43 179 122 263 220 38 44 98 104 135 134 37 29 76 63
86 75 20 22 51 28 60 12 3 -5 21 -12 40 -15 19 -4 40 -14 47 -23 12 -13 9 -20
-21 -45 -19 -17 -59 -46 -88 -65 -37 -24 -77 -67 -140 -151 -86 -114 -89 -118
-151 -140 -64 -22 -87 -21 -77 4 8 21 -3 17 -41 -16 -18 -16 -38 -30 -43 -30
-6 0 -10 -4 -10 -10 0 -18 107 -11 167 11 42 16 58 19 61 10 2 -7 15 -16 28
-21 28 -11 30 -34 11 -112 -10 -42 -14 -161 -7 -233 0 -5 9 7 19 27 11 21 24
77 31 125 13 103 38 162 110 264 44 62 174 199 188 199 2 0 1 -36 -3 -79 -6
-65 -3 -91 14 -148 11 -37 25 -92 31 -120 17 -77 46 -63 35 15 -5 36 17 84 31
69 4 -4 17 14 29 39 24 50 80 93 98 75 19 -19 29 -12 27 17 -4 63 3 52 44 -63
16 -45 26 -61 42 -63 38 -5 48 21 29 77 -9 27 -15 71 -13 98 3 43 6 48 28 51
14 2 29 8 34 12 9 9 58 -13 81 -35 51 -49 55 -64 53 -186 -1 -65 1 -122 6
-126 4 -4 15 -3 24 3 12 8 20 33 26 84 12 96 -6 203 -47 288 -28 57 -49 81
-131 150 -15 12 -24 27 -21 32 3 6 31 10 61 10 30 0 71 7 91 15 19 8 51 15 70
15 18 0 50 7 69 15 43 18 50 15 69 -32 14 -33 50 -214 57 -288 3 -30 3 -30 16
-7 7 12 16 45 19 72 3 28 11 58 18 67 11 14 14 9 23 -38 6 -30 22 -106 36
-169 74 -334 59 -638 -45 -924 -49 -137 -163 -341 -218 -390 -21 -19 -28 -46
-13 -46 44 0 253 190 324 296 24 35 48 64 54 64 6 0 15 -54 23 -132 7 -73 19
-178 27 -232 16 -104 34 -267 59 -521 8 -82 19 -168 24 -190 6 -22 13 -115 17
-207 l7 -167 -24 -9 c-13 -6 -70 -20 -127 -33 -57 -13 -105 -27 -108 -31 -3
-4 -12 -8 -20 -8 -8 0 -57 -20 -107 -45 -65 -31 -123 -50 -198 -65 -332 -65
-476 -139 -493 -251 -8 -55 13 -139 60 -238 42 -89 43 -87 -84 -145 -64 -29
-90 -37 -114 -32 -18 3 -115 47 -217 97 -194 95 -240 116 -461 206 -409 166
-572 253 -740 391 -116 96 -162 159 -260 352 -23 47 -48 92 -55 100 -16 18
-126 244 -174 355 -58 134 -149 316 -196 390 -24 39 -48 77 -52 85 -4 8 -17
30 -30 49 -27 40 -29 64 -7 85 24 24 36 19 71 -29 33 -45 163 -155 182 -155
21 0 10 22 -74 141 -99 141 -103 160 -50 222 19 22 55 82 80 133 42 86 50 95
100 124 57 33 165 73 173 65 3 -3 6 -76 6 -163 1 -97 5 -164 12 -173 6 -8 18
-35 28 -61 24 -64 46 -64 46 1 0 31 5 53 15 61 8 7 15 19 15 28 0 15 87 102
102 102 8 0 19 -23 47 -93 8 -21 17 -28 34 -25 25 3 27 24 8 93 -8 32 -7 43 5
56 12 14 19 15 39 5 16 -7 23 -17 19 -28 -3 -9 -1 -25 4 -35 5 -10 16 -34 25
-53 14 -35 15 -34 14 54 0 82 2 90 24 107 l24 19 -25 23 c-14 13 -55 57 -92
99 -53 59 -68 83 -68 107 0 17 -4 31 -8 31 -11 0 -52 74 -52 93 0 20 27 29 50
17 22 -12 59 -85 64 -127 2 -22 22 -51 67 -98 35 -37 83 -87 107 -112 27 -30
42 -40 42 -29 0 9 -7 19 -15 22 -8 4 -15 10 -15 16 0 5 -17 35 -38 66 -21 31
-68 113 -104 182 -36 69 -80 151 -97 182 -17 32 -31 64 -31 72 0 7 -6 19 -14
25 -8 7 -20 35 -27 64 -6 29 -22 66 -33 82 -27 37 -47 88 -53 135 -3 19 -9 40
-14 45 -9 13 -29 117 -36 195 -6 73 -11 86 -24 73 -28 -28 -3 -352 41 -537 15
-61 18 -92 11 -99 -11 -11 -14 -5 -46 88 -9 28 -23 64 -30 80 -18 40 -55 155
-55 172 0 7 -4 21 -10 31 -15 28 -70 213 -70 238 0 14 9 28 23 35 12 7 36 24
53 38 17 14 60 48 95 76 145 113 264 234 382 385 85 109 90 116 121 171 10 19
22 36 26 39 8 6 50 86 104 201 28 59 36 89 36 132 0 70 -13 79 -28 21 -7 -25
-28 -78 -47 -119 -19 -40 -35 -76 -35 -79 0 -8 -73 -123 -140 -220 -150 -217
-420 -471 -640 -602 -25 -15 -55 -36 -68 -47 -17 -16 -25 -18 -34 -9 -23 23
-48 13 -64 -23 -8 -20 -22 -39 -32 -42 -9 -4 -33 -18 -52 -31 -68 -46 -254
-130 -430 -192 -61 -22 -74 -27 -102 -38 -29 -12 -62 -6 -52 9 3 5 12 9 19 9
43 0 426 214 569 317 34 24 77 54 96 67 56 38 327 283 367 333 21 26 63 75 93
109 105 120 195 239 250 328 19 31 61 98 93 147 31 50 57 96 57 103 0 8 6 18
13 24 14 12 144 57 307 105 63 19 135 42 160 50 83 28 85 26 81 -88z m2828 50
c25 -14 128 -63 229 -110 100 -46 210 -101 245 -121 34 -20 82 -48 107 -62
106 -59 242 -156 272 -195 34 -42 37 -48 74 -114 12 -21 53 -83 91 -138 39
-55 101 -154 138 -220 93 -168 165 -284 236 -383 33 -47 63 -91 66 -98 7 -20
-20 -17 -48 4 -13 10 -62 45 -109 77 -155 106 -353 259 -440 339 -279 260
-361 349 -812 888 -54 64 -102 120 -108 123 -14 8 -13 35 1 35 6 0 32 -11 58
-25z m-3469 -156 c0 -32 -124 -233 -169 -273 -12 -11 -21 -24 -21 -30 0 -6
-20 -32 -43 -57 -23 -25 -69 -78 -102 -117 -33 -39 -114 -124 -179 -189 l-120
-118 -7 30 c-3 17 -7 143 -8 280 l-1 250 98 42 c109 48 185 76 352 134 63 22
126 43 140 48 36 13 60 13 60 0z m775 -171 c144 -209 324 -428 434 -529 44
-41 81 -80 81 -87 0 -7 -14 -25 -32 -40 -18 -15 -103 -88 -189 -162 -86 -74
-198 -169 -249 -210 -51 -41 -140 -115 -197 -163 -56 -49 -107 -85 -113 -82
-6 4 -8 21 -6 38 3 18 15 104 26 192 12 88 30 210 41 270 10 61 24 139 30 175
12 67 27 134 52 230 24 89 75 312 82 353 7 42 17 47 40 15z m630 -227 c85 -84
155 -156 155 -160 0 -9 -97 -81 -110 -81 -6 0 -14 8 -17 18 -4 9 -25 46 -48
82 -23 36 -57 94 -76 130 -18 36 -46 84 -61 106 -31 47 -38 80 -13 66 9 -4 85
-77 170 -161z m462 -131 c18 -36 40 -87 49 -115 10 -27 30 -77 45 -109 16 -33
29 -67 29 -77 0 -20 -39 -37 -155 -69 -44 -12 -95 -27 -113 -33 -41 -14 -56 2
-37 42 38 79 46 101 42 113 -4 13 -22 -4 -80 -76 -20 -25 -26 -27 -45 -17 -12
6 -22 16 -22 22 0 10 -58 99 -72 109 -3 3 -9 17 -13 31 -5 21 1 32 39 67 25
23 54 42 65 42 18 0 51 -25 211 -160 49 -42 109 -80 125 -80 3 0 5 6 5 14 0 7
-25 33 -56 57 -134 104 -228 192 -223 208 6 16 142 100 158 98 8 -1 29 -31 48
-67z m-362 -273 c21 -34 47 -72 58 -85 15 -16 18 -25 10 -33 -8 -8 -36 7 -102
56 -50 38 -91 73 -91 78 0 19 64 66 76 56 6 -5 28 -37 49 -72z m2393 -199
c110 -78 130 -102 95 -112 -33 -9 -200 -29 -212 -25 -7 3 -25 43 -41 91 -16
48 -43 117 -60 154 -44 98 -32 107 42 34 35 -34 114 -98 176 -142z m-2496 138
c24 -19 65 -47 90 -63 51 -32 50 -42 -2 -63 -19 -7 -76 -30 -127 -51 l-91 -39
-67 17 c-84 21 -91 36 -37 81 22 18 67 60 99 92 32 33 65 59 74 60 9 0 36 -15
61 -34z m-2013 -344 c36 -148 102 -335 163 -460 19 -38 0 -44 -82 -23 -41 11
-133 31 -205 45 -192 39 -191 38 -187 70 3 27 64 203 105 304 12 30 34 66 50
80 26 26 101 69 123 71 7 1 21 -39 33 -87z m4701 34 c0 -93 -33 -271 -72 -391
-47 -144 -49 -147 -64 -134 -8 6 -14 18 -14 26 0 15 -102 346 -119 388 -34 82
-33 95 7 95 15 1 74 11 132 24 58 13 111 21 118 18 6 -2 12 -14 12 -26z
m-2549 -26 c28 -16 25 -58 -6 -70 -49 -19 -83 24 -49 61 20 22 28 23 55 9z
m-761 -94 c0 -3 -4 -8 -10 -11 -5 -3 -10 -1 -10 4 0 6 5 11 10 11 6 0 10 -2
10 -4z m-2260 -136 c0 -15 -7 -20 -29 -20 -36 0 -48 15 -24 29 29 17 53 13 53
-9z m1149 -130 c0 -24 0 -24 -14 -6 -8 11 -15 38 -14 60 l1 41 13 -35 c7 -19
14 -46 14 -60z m781 -26 c11 -12 11 -18 -2 -31 -20 -20 -38 -9 -38 23 0 27 21
32 40 8z m-753 -16 c6 -7 16 -30 22 -50 7 -20 16 -38 21 -40 9 -3 13 -22 11
-51 -2 -32 -32 -14 -57 33 -34 64 -31 151 3 108z m-519 -97 c86 -39 266 -98
372 -121 107 -24 171 -67 156 -106 -4 -10 -20 -14 -53 -13 -49 1 -290 -28
-305 -37 -4 -3 -8 -9 -8 -15 0 -11 77 -4 193 17 44 8 82 12 85 10 4 -2 16 0
27 4 26 9 86 -8 102 -29 26 -34 16 -41 -56 -41 -38 0 -105 -7 -148 -15 -47 -9
-106 -13 -148 -10 -181 13 -255 15 -255 7 0 -4 20 -28 45 -52 25 -24 45 -50
45 -57 0 -7 -29 -45 -65 -85 -86 -96 -275 -213 -275 -170 0 4 4 32 10 62 5 30
18 109 29 175 28 162 39 218 61 295 10 36 26 100 36 143 15 70 19 77 41 77 14
0 64 -18 111 -39z m622 -456 c30 -36 -9 -65 -67 -50 -20 5 -23 10 -17 28 4 12
12 25 18 29 18 13 53 9 66 -7z m-786 -371 c8 -21 -19 -64 -39 -64 -23 0 -41
46 -25 65 17 20 56 19 64 -1z m5146 -450 c72 -26 223 -21 294 10 31 14 58 21
61 15 4 -5 2 -9 -4 -9 -5 0 -62 -52 -127 -115 l-116 -115 -67 20 c-60 18 -71
19 -123 6 -61 -14 -85 -8 -74 19 7 19 27 138 32 190 1 17 3 33 3 38 1 4 18 -4
39 -17 20 -14 57 -33 82 -42z m-5730 -58 c0 -102 -7 -137 -21 -114 -5 7 -9 57
-9 111 0 80 3 97 15 97 12 0 15 -17 15 -94z m5216 -113 c4 -32 8 -134 8 -228
1 -159 -1 -174 -23 -227 -14 -32 -27 -58 -31 -58 -18 0 -80 70 -80 91 0 13 15
74 34 135 19 61 42 164 52 228 9 64 21 116 25 116 4 0 11 -26 15 -57z m-4369
-90 c95 -228 127 -301 163 -366 23 -43 40 -80 37 -84 -6 -6 -236 148 -298 200
-55 46 -52 75 18 197 11 19 25 45 32 58 16 30 34 28 48 -5z m4946 -10 c14 -9
-5 -24 -176 -137 -95 -63 -207 -147 -249 -186 l-78 -72 0 50 c0 91 80 210 185
278 97 62 170 85 245 78 36 -3 68 -8 73 -11z m-2223 -915 c6 -18 21 -49 31
-69 24 -47 25 -111 2 -131 -10 -8 -43 -29 -73 -45 -30 -17 -72 -41 -94 -53
-21 -11 -44 -19 -50 -17 -6 3 -17 31 -24 63 -35 150 -112 190 -203 103 -42
-40 -45 -49 -27 -67 18 -18 50 -14 78 8 40 31 56 25 76 -27 10 -27 26 -63 36
-81 l19 -34 -38 -41 c-68 -75 -101 -112 -122 -137 -17 -21 -22 -23 -30 -10 -7
10 -5 20 5 31 10 11 12 19 5 24 -6 3 -11 -1 -11 -9 0 -37 -34 -9 -45 37 -4 16
-14 31 -21 34 -8 3 -14 16 -14 28 0 13 -3 25 -8 27 -15 6 -41 88 -30 94 6 4
14 0 19 -7 6 -10 9 -8 9 9 0 12 -4 22 -10 22 -5 0 -11 12 -11 28 -1 16 -3 20
-6 10 -8 -33 -23 -18 -23 22 0 29 4 40 15 40 8 0 15 7 15 15 0 15 60 58 120
86 69 33 256 72 366 77 27 2 33 -3 44 -30z m1250 -147 c0 -13 -122 -182 -197
-272 -37 -45 -76 -82 -95 -90 -18 -7 -55 -26 -81 -42 -26 -16 -50 -28 -52 -25
-20 20 113 168 320 356 88 79 105 91 105 73z m-1243 -180 c0 -37 -1 -38 -19
-22 -16 14 -17 17 -3 27 8 6 15 16 15 23 0 6 2 11 4 11 2 0 3 -17 3 -39z m-67
-51 c-17 -16 -26 -30 -20 -30 6 0 10 -31 10 -79 0 -63 -4 -83 -20 -104 -13
-16 -20 -40 -20 -66 0 -23 -4 -41 -9 -41 -16 0 -51 -85 -51 -123 0 -25 -4 -37
-14 -37 -8 0 -17 -8 -19 -17 -3 -10 -10 -40 -17 -68 -7 -27 -24 -75 -38 -105
-14 -30 -31 -73 -37 -95 -10 -33 -17 -41 -40 -43 l-27 -4 7 -71 c3 -40 11 -73
16 -75 5 -2 9 -18 9 -35 0 -50 10 -58 52 -47 35 10 54 32 42 51 -3 5 6 13 19
18 14 6 28 15 32 21 4 7 11 8 18 1 7 -5 26 -11 42 -13 25 -2 30 -7 28 -28 -1
-14 -3 -47 -6 -75 -2 -38 -8 -52 -23 -59 -22 -10 -48 -103 -38 -131 3 -8 -10
-30 -30 -51 -34 -35 -35 -37 -20 -65 13 -27 13 -30 -6 -41 -11 -7 -20 -21 -20
-31 0 -10 -4 -15 -10 -12 -14 9 -13 61 2 84 20 33 -30 110 -55 84 -4 -3 3 -17
15 -30 12 -12 18 -26 15 -30 -16 -16 -47 37 -47 80 0 52 -20 77 -45 57 -24
-20 -93 -6 -126 26 -34 33 -37 44 -9 37 19 -5 20 0 20 85 0 71 3 91 15 96 11
4 15 23 15 80 0 65 2 74 20 79 11 3 20 12 20 21 0 19 -21 21 -38 4 -30 -30 6
135 52 237 7 17 23 56 36 88 12 31 26 60 31 63 5 3 9 16 9 29 0 13 12 36 26
52 14 15 28 40 31 55 3 16 10 31 14 34 5 3 9 16 9 28 0 13 7 29 14 36 8 6 23
31 32 56 18 47 23 51 41 33 9 -9 13 -2 18 25 8 41 45 76 82 76 24 0 23 0 -7
-30z m50 -29 c0 -40 -17 -48 -32 -16 -10 22 -9 28 3 36 23 15 29 11 29 -20z
m277 -947 c18 -14 33 -31 33 -39 0 -15 -45 -96 -111 -200 -51 -81 -60 -71 -30
32 11 37 25 100 32 138 18 111 19 112 76 69z m358 -50 l100 -3 6 -153 c9 -212
34 -357 90 -523 54 -157 109 -259 180 -331 33 -34 40 -47 31 -56 -15 -15 -95
4 -165 39 -106 53 -253 222 -340 390 -57 112 -107 357 -107 530 l0 126 53 -8
c28 -4 97 -9 152 -11z m-269 -61 c-10 -10 -19 5 -10 18 6 11 8 11 12 0 2 -7 1
-15 -2 -18z m-51 -195 c4 -23 3 -38 -5 -43 -19 -12 -27 6 -33 68 -6 58 -6 58
13 34 10 -12 21 -39 25 -59z m-244 5 c5 -14 7 -34 3 -42 -5 -13 -8 -11 -14 9
-17 55 -8 82 11 33z m199 1 c0 -8 -4 -14 -10 -14 -5 0 -10 9 -10 21 0 11 5 17
10 14 6 -3 10 -13 10 -21z m-253 -6 c-3 -8 -6 -5 -6 6 -1 11 2 17 5 13 3 -3 4
-12 1 -19z m-397 -8 c0 -5 -9 -10 -20 -10 -11 0 -20 5 -20 10 0 6 9 10 20 10
11 0 20 -4 20 -10z m736 -17 c-10 -10 -19 5 -10 18 6 11 8 11 12 0 2 -7 1 -15
-2 -18z m-308 -36 c2 -15 -4 -34 -12 -43 -20 -20 -20 -51 0 -62 14 -8 14 -16
-1 -83 -9 -41 -21 -82 -26 -91 -13 -25 -11 -51 5 -83 8 -15 12 -34 9 -42 -4
-9 3 -16 17 -20 19 -5 20 -8 9 -17 -35 -28 -65 -126 -39 -126 6 0 10 -7 10
-15 0 -8 -4 -15 -10 -15 -5 0 -10 -6 -10 -14 0 -23 -13 -26 -48 -9 -42 20 -64
5 -55 -38 4 -22 2 -29 -10 -29 -8 0 -17 7 -21 15 -3 8 -15 15 -26 15 -15 0
-20 7 -20 28 0 35 9 45 26 31 8 -7 14 -7 19 1 3 5 2 10 -3 10 -6 0 -14 17 -20
38 l-10 37 -1 -32 c-2 -58 -19 -35 -27 34 -4 41 -2 85 4 112 6 26 14 64 18 86
4 22 10 45 14 50 5 6 10 23 12 40 2 20 10 31 25 35 37 9 63 37 63 70 0 18 11
42 28 62 15 18 34 45 42 61 16 33 34 30 38 -6z m16 -52 c-15 -39 -15 -39 -9
-6 3 18 5 41 5 49 0 10 3 13 10 6 6 -6 4 -24 -6 -49z m228 25 c3 -21 0 -31
-11 -35 -24 -7 -54 -89 -53 -143 1 -71 -16 -30 -21 51 -4 72 -1 83 19 66 15
-12 28 7 39 59 8 40 21 41 27 2z m44 3 c-10 -10 -19 5 -10 18 6 11 8 11 12 0
2 -7 1 -15 -2 -18z m-144 -67 c4 -19 0 -25 -19 -29 -19 -4 -23 -1 -17 12 3 9
9 24 11 33 7 23 19 15 25 -16z m108 -20 c0 -3 -4 -8 -10 -11 -5 -3 -10 -1 -10
4 0 6 5 11 10 11 6 0 10 -2 10 -4z m-20 -46 c0 -14 -7 -20 -22 -20 -20 0 -21
1 -3 20 10 11 20 20 22 20 1 0 3 -9 3 -20z m-503 -37 c-3 -10 -5 -2 -5 17 0
19 2 27 5 18 2 -10 2 -26 0 -35z m407 -7 c-6 -16 -8 -17 -16 -2 -11 19 0 42
13 29 6 -6 7 -18 3 -27z m-15 -71 c21 -10 31 -11 39 -3 8 8 8 1 -1 -21 -14
-39 -82 -97 -92 -80 -7 10 0 92 13 159 l7 35 3 -38 c3 -29 9 -40 31 -52z m21
21 c0 -3 -4 -8 -10 -11 -5 -3 -10 -1 -10 4 0 6 5 11 10 11 6 0 10 -2 10 -4z
m-70 -181 c0 -8 -4 -15 -10 -15 -5 0 -16 -13 -25 -30 -18 -35 -36 -40 -27 -7
16 52 62 91 62 52z m-165 -225 c3 -5 1 -10 -4 -10 -6 0 -11 5 -11 10 0 6 2 10
4 10 3 0 8 -4 11 -10z m-37 -52 c-9 -13 -24 -24 -34 -25 -15 -2 -15 -1 4 9 12
6 22 17 22 25 0 7 5 13 11 13 7 0 6 -8 -3 -22z m-64 -12 c-3 -9 -13 -16 -22
-16 -13 0 -12 3 3 20 20 23 29 21 19 -4z"/>
<path d="M7340 7321 c0 -7 7 -19 15 -27 19 -20 19 -5 0 20 -9 11 -15 14 -15 7z"/>
<path d="M7380 7260 c0 -12 96 -153 150 -220 20 -25 56 -79 79 -120 24 -41 67
-104 96 -140 28 -36 66 -85 85 -110 18 -25 44 -55 57 -68 l24 -24 -7 29 c-4
15 -28 54 -53 86 -25 32 -58 77 -73 100 -15 22 -38 52 -51 66 -13 14 -40 51
-60 81 -62 92 -69 101 -154 218 -46 61 -86 112 -88 112 -3 0 -5 -5 -5 -10z"/>
<path d="M7116 7249 c-5 -11 10 -50 40 -105 26 -49 69 -132 96 -184 28 -52 58
-108 68 -125 10 -16 28 -55 40 -85 11 -30 30 -75 42 -100 37 -79 92 -203 119
-265 22 -53 44 -108 75 -195 36 -99 54 -130 54 -94 0 28 -40 160 -80 264 -18
47 -49 126 -68 175 -52 136 -92 226 -120 270 -14 22 -50 87 -79 144 -30 57
-65 118 -78 136 -14 17 -25 36 -25 41 0 5 -15 33 -34 61 -19 28 -36 57 -39 65
-3 10 -6 9 -11 -3z"/>
<path d="M8160 6360 c0 -5 5 -10 11 -10 5 0 7 5 4 10 -3 6 -8 10 -11 10 -2 0
-4 -4 -4 -10z"/>
<path d="M8200 6331 c0 -5 5 -13 10 -16 6 -3 10 -2 10 4 0 5 -4 13 -10 16 -5
3 -10 2 -10 -4z"/>
<path d="M8240 6290 c0 -5 7 -10 16 -10 8 0 12 5 9 10 -3 6 -10 10 -16 10 -5
0 -9 -4 -9 -10z"/>
<path d="M8345 6208 c63 -55 120 -98 170 -127 108 -64 135 -76 135 -61 0 5
-37 31 -82 58 -46 27 -121 77 -168 110 -99 72 -124 80 -55 20z"/>
<path d="M7286 5892 c-8 -13 9 -95 40 -195 13 -43 24 -90 24 -105 0 -15 9 -38
20 -52 18 -24 20 -43 20 -322 0 -270 -5 -331 -24 -282 -3 9 -6 136 -6 282 0
248 -7 330 -23 270 -4 -12 -7 -151 -7 -309 0 -366 -28 -760 -56 -806 -20 -31
-17 -50 7 -63 31 -17 25 -33 75 205 7 39 19 90 24 115 6 25 15 77 20 115 5 39
13 93 19 120 5 28 12 142 16 255 7 234 -11 452 -44 542 -11 29 -34 91 -51 138
-33 89 -44 108 -54 92z"/>
<path d="M5182 5707 c-12 -13 -22 -27 -22 -32 0 -4 11 4 26 20 14 15 23 29 21
31 -2 2 -13 -6 -25 -19z"/>
<path d="M5760 5550 c0 -5 5 -10 10 -10 6 0 10 5 10 10 0 6 -4 10 -10 10 -5 0
-10 -4 -10 -10z"/>
<path d="M5824 5425 c-3 -14 -9 -25 -13 -25 -4 0 -15 -6 -25 -13 -29 -21 -8
-44 64 -72 62 -24 74 -25 124 -16 67 12 116 36 116 56 0 18 3 17 -40 5 -47
-15 -163 -14 -189 0 -18 9 -21 17 -15 44 7 40 -12 59 -22 21z"/>
<path d="M6340 5370 c0 -5 5 -10 10 -10 6 0 10 5 10 10 0 6 -4 10 -10 10 -5 0
-10 -4 -10 -10z"/>
<path d="M6310 5310 c-12 -8 -12 -10 2 -15 20 -8 41 2 33 16 -8 11 -16 11 -35
-1z"/>
<path d="M6203 5228 c-43 -26 -42 -35 6 -40 32 -3 42 0 49 17 11 24 5 45 -11
44 -7 0 -27 -10 -44 -21z"/>
<path d="M5873 5076 c-92 -24 -106 -32 -70 -41 16 -4 52 1 89 13 35 11 76 23
91 26 32 7 27 27 -6 25 -12 -1 -59 -11 -104 -23z"/>
<path d="M4332 4565 c-7 -18 -27 -45 -43 -60 -25 -21 -41 -25 -90 -25 -50 0
-64 4 -82 24 -17 18 -27 22 -44 15 -34 -12 -28 -25 22 -54 60 -36 138 -43 185
-17 40 22 80 84 80 125 0 37 -13 34 -28 -8z"/>
<path d="M4537 4474 c-8 -8 59 -128 74 -133 7 -2 10 0 7 5 -2 5 -17 35 -32 66
-28 58 -39 72 -49 62z"/>
<path d="M5283 4366 c-106 -39 -330 -192 -310 -212 9 -10 49 13 141 82 130 97
252 143 346 129 70 -11 145 -28 154 -36 6 -5 -2 -30 -19 -61 -42 -80 -42 -80
-78 -57 -83 50 -115 58 -157 36 -43 -24 -97 -55 -137 -80 -21 -13 -72 -40
-113 -59 -116 -54 -230 -160 -230 -213 0 -28 26 -51 70 -60 19 -4 38 -13 42
-19 13 -19 9 -63 -7 -76 -22 -18 -96 -7 -132 20 -37 27 -48 49 -64 129 -12 57
-12 63 10 101 28 50 20 51 -22 4 -43 -49 -47 -63 -37 -125 26 -161 114 -383
199 -498 27 -36 66 -93 86 -126 69 -109 226 -262 310 -301 29 -14 67 -23 90
-23 22 1 31 3 20 6 -56 12 -166 78 -220 133 -56 57 -58 60 -46 88 7 16 26 42
42 58 31 30 39 64 14 64 -14 0 -23 -8 -74 -70 l-21 -25 -26 30 c-62 72 -73 87
-100 132 -36 62 -114 219 -114 231 0 5 -6 22 -14 38 -21 42 -31 104 -17 104 6
0 11 -11 11 -25 0 -14 4 -25 9 -25 14 0 71 34 71 43 0 4 8 7 18 7 32 0 53 33
46 71 -10 59 -24 79 -56 79 -17 0 -27 4 -23 10 3 6 13 10 21 10 9 0 22 7 31
15 14 14 13 15 -11 9 -33 -8 -34 7 -4 49 27 38 63 71 98 89 14 7 27 16 30 19
8 11 140 89 149 89 5 0 14 6 20 14 7 8 31 24 53 36 50 26 81 21 155 -27 58
-37 98 -39 110 -5 3 9 13 25 21 35 8 9 20 27 26 39 13 26 36 35 36 14 0 -9 6
-13 14 -10 19 7 155 -64 227 -119 73 -55 176 -151 216 -202 46 -59 93 -149 93
-180 0 -14 5 -46 11 -69 14 -58 4 -77 -116 -207 -191 -205 -296 -302 -370
-340 -89 -46 -189 -76 -285 -84 -104 -9 -124 0 -146 68 -16 52 -16 55 11 162
15 59 30 115 35 124 4 9 16 33 26 54 26 51 100 130 149 157 51 28 135 92 135
102 0 15 -45 8 -78 -12 -18 -11 -37 -20 -42 -20 -6 0 -42 -21 -80 -47 -118
-82 -175 -211 -219 -498 -11 -71 -8 -76 76 -94 32 -7 66 -17 76 -22 10 -6 40
-13 65 -16 75 -9 241 46 352 116 64 40 276 249 339 334 24 31 47 57 51 57 41
0 -10 -158 -92 -285 -61 -97 -213 -196 -363 -239 -33 -10 -71 -21 -84 -25 -32
-9 -39 -31 -10 -31 77 0 318 105 394 172 77 68 151 183 201 316 32 84 34 260
4 361 -58 196 -366 471 -649 578 -98 37 -252 41 -338 9z"/>
<path d="M4195 4240 c-3 -5 1 -10 9 -10 9 0 16 5 16 10 0 6 -4 10 -9 10 -6 0
-13 -4 -16 -10z"/>
<path d="M5650 4220 c0 -5 4 -10 9 -10 6 0 13 5 16 10 3 6 -1 10 -9 10 -9 0
-16 -4 -16 -10z"/>
<path d="M3927 4200 c-9 -11 -17 -25 -17 -31 0 -14 49 23 50 39 0 18 -13 15
-33 -8z"/>
<path d="M6038 2903 c7 -3 16 -2 19 1 4 3 -2 6 -13 5 -11 0 -14 -3 -6 -6z"/>
<path d="M6078 2903 c7 -3 16 -2 19 1 4 3 -2 6 -13 5 -11 0 -14 -3 -6 -6z"/>
<path d="M5971 2890 c-7 -4 -12 -13 -10 -19 3 -8 10 -8 23 2 21 15 9 31 -13
17z"/>
<path d="M6217 2400 c-3 -11 -1 -23 4 -26 5 -3 9 6 9 20 0 31 -6 34 -13 6z"/>
<path d="M6541 954 c0 -11 3 -14 6 -6 3 7 2 16 -1 19 -3 4 -6 -2 -5 -13z"/>
<path d="M2405 5600 c-3 -5 -1 -10 4 -10 6 0 11 5 11 10 0 6 -2 10 -4 10 -3 0
-8 -4 -11 -10z"/>
<path d="M10991 5352 c-86 -170 -182 -327 -261 -427 -100 -126 -136 -195 -101
-195 22 0 106 90 162 173 133 196 289 499 289 561 0 20 -3 36 -7 36 -5 0 -41
-67 -82 -148z"/>
<path d="M2055 5458 c-15 -18 -70 -80 -124 -137 -53 -57 -108 -122 -122 -145
-15 -22 -60 -78 -102 -123 -41 -45 -112 -128 -158 -184 -46 -57 -113 -137
-149 -179 -94 -111 -168 -205 -195 -249 -5 -9 -29 -42 -52 -73 -24 -31 -43
-60 -43 -63 0 -17 -55 -75 -71 -75 -11 0 -19 4 -19 8 0 15 -95 76 -175 113
-114 51 -335 105 -335 81 0 -4 26 -29 58 -57 87 -75 159 -161 194 -233 29 -59
32 -72 32 -163 0 -70 3 -99 12 -99 17 0 24 35 24 127 0 130 -30 199 -125 291
-41 40 -73 77 -70 81 12 21 380 -145 392 -176 3 -7 -13 -41 -35 -76 -22 -34
-56 -94 -76 -132 -20 -39 -45 -83 -56 -100 -44 -67 -177 -351 -230 -490 -93
-244 -141 -395 -185 -585 -7 -30 -20 -82 -29 -115 -42 -166 -78 -540 -76 -808
1 -199 4 -232 22 -221 6 4 9 -9 7 -32 -4 -58 0 -104 9 -104 4 0 6 107 4 237
-3 213 -1 248 18 333 14 62 17 96 11 98 -14 5 -14 142 -1 177 5 14 14 56 20
93 54 363 136 648 304 1057 48 114 153 334 190 395 30 49 106 182 106 185 0 8
81 131 135 205 33 45 69 96 79 113 18 30 152 206 165 217 4 3 26 30 51 60 24
30 78 92 119 137 42 45 87 95 101 112 14 16 62 71 108 123 46 51 96 107 111
124 15 17 56 65 92 105 91 103 122 148 115 164 -8 23 -22 18 -51 -17z"/>
<path d="M8463 5429 c12 -22 23 -36 25 -30 4 13 -26 71 -38 71 -5 0 1 -18 13
-41z"/>
<path d="M9080 5244 c0 -34 338 -276 435 -311 17 -6 67 -27 112 -46 44 -20 84
-33 87 -30 7 8 -51 51 -78 59 -57 16 -225 106 -346 185 -139 91 -149 98 -187
132 -13 11 -23 16 -23 11z"/>
<path d="M10476 4595 c-42 -105 -29 -145 15 -47 30 67 40 112 24 112 -7 0 -25
-29 -39 -65z"/>
<path d="M0 4596 l0 -34 178 -5 c197 -5 334 -29 495 -86 89 -31 213 -97 237
-125 14 -18 40 -21 40 -6 0 16 -57 68 -125 117 -102 72 -455 155 -707 167
l-118 5 0 -33z"/>
<path d="M10580 4616 c0 -24 376 -221 478 -251 17 -5 22 -2 22 13 0 14 -15 26
-52 42 -68 29 -186 87 -314 156 -105 56 -134 64 -134 40z"/>
<path d="M1860 4554 c-6 -14 -10 -48 -10 -75 0 -36 -4 -49 -15 -49 -8 0 -16
-13 -19 -32 -3 -18 -7 -46 -10 -63 -10 -67 -43 -132 -93 -185 -49 -51 -66 -91
-45 -104 5 -3 27 6 51 20 24 13 47 21 52 18 12 -7 12 -60 0 -101 -5 -18 -14
-83 -20 -145 -11 -108 -14 -165 -27 -453 -11 -247 25 -628 90 -955 18 -88 62
-256 75 -285 5 -11 23 -60 40 -110 76 -229 197 -459 351 -665 67 -91 172 -176
125 -102 -10 15 -26 36 -35 47 -109 121 -308 497 -377 710 -15 44 -29 85 -33
90 -7 9 -29 82 -51 165 -5 19 -16 60 -24 90 -24 86 -42 184 -74 405 -27 185
-32 309 -29 695 3 354 6 423 25 551 12 80 25 152 27 160 3 8 10 57 15 111 5
53 17 110 25 127 9 16 16 41 16 55 0 14 5 28 10 31 6 3 10 22 10 41 0 27 -4
34 -20 34 -13 0 -24 -10 -30 -26z"/>
<path d="M10315 4387 c-4 -10 -28 -40 -54 -67 -33 -34 -51 -65 -63 -106 -10
-32 -14 -62 -9 -67 4 -4 30 16 58 46 35 39 54 71 67 114 18 59 19 121 1 80z"/>
<path d="M10397 4353 c-11 -10 -8 -41 4 -49 16 -9 43 21 36 40 -7 16 -28 21
-40 9z"/>
<path d="M10495 4330 c-9 -28 7 -44 57 -59 46 -14 297 -126 415 -185 39 -20
81 -36 92 -36 28 0 27 32 -2 46 -12 6 -117 58 -233 116 -188 95 -287 138 -314
138 -5 0 -12 -9 -15 -20z"/>
<path d="M10087 4153 c-8 -15 -18 -50 -22 -78 -4 -27 -15 -75 -25 -105 -24
-72 -34 -130 -23 -130 5 0 19 39 32 88 12 48 34 111 47 140 25 55 31 97 14
107 -5 3 -16 -7 -23 -22z"/>
<path d="M0 4147 c0 -11 13 -18 38 -23 185 -32 481 -148 607 -238 17 -12 42
-27 57 -33 48 -21 23 8 -65 74 -153 116 -397 213 -574 230 -54 5 -63 3 -63
-10z"/>
<path d="M0 4026 c0 -14 19 -53 43 -88 44 -64 97 -170 97 -193 0 -7 7 -18 15
-25 9 -7 15 -29 15 -54 0 -65 11 -120 21 -104 34 53 -20 254 -101 373 -15 22
-38 57 -51 77 -28 44 -39 48 -39 14z"/>
<path d="M9913 4009 c-55 -32 -97 -75 -87 -90 8 -13 50 -11 88 5 35 14 60 59
54 95 -3 19 -5 19 -55 -10z"/>
<path d="M10164 3983 c-3 -10 -10 -26 -15 -35 -12 -24 -12 -71 1 -63 6 3 10
16 10 29 0 12 4 26 9 32 15 16 23 54 11 54 -6 0 -13 -8 -16 -17z"/>
<path d="M1520 3935 c-7 -9 -8 -15 -2 -15 5 0 12 7 16 15 3 8 4 15 2 15 -2 0
-9 -7 -16 -15z"/>
<path d="M9442 3909 c4 -31 59 -59 114 -59 40 0 75 22 60 37 -9 9 -88 31 -139
40 -37 6 -39 4 -35 -18z"/>
<path d="M9721 3906 c-14 -26 -8 -46 14 -46 19 0 45 39 38 56 -8 22 -38 16
-52 -10z"/>
<path d="M10178 3924 c-5 -4 -8 -20 -8 -36 0 -15 -4 -28 -9 -28 -5 0 -12 -12
-14 -27 l-4 -28 -2 28 c0 15 -5 27 -11 27 -14 0 -12 -34 3 -49 10 -10 9 -15
-5 -25 -22 -16 -23 -33 -4 -52 21 -21 26 -18 26 19 0 18 9 52 21 76 18 39 24
113 7 95z"/>
<path d="M0 3832 c0 -33 11 -59 50 -123 28 -44 50 -84 50 -89 0 -4 7 -13 15
-20 13 -11 15 -6 15 32 0 33 -11 62 -45 123 -25 44 -55 89 -65 100 -20 19 -20
19 -20 -23z"/>
<path d="M1410 3810 c0 -5 5 -10 10 -10 6 0 10 5 10 10 0 6 -4 10 -10 10 -5 0
-10 -4 -10 -10z"/>
<path d="M10230 3774 c-23 -60 -13 -95 55 -189 66 -90 109 -134 133 -135 6 0
12 -3 12 -7 1 -5 10 -19 21 -32 15 -18 23 -21 31 -13 21 21 55 16 245 -34 51
-13 100 -24 109 -24 28 0 0 24 -63 54 -154 74 -184 87 -270 117 -79 27 -98 38
-127 74 -45 54 -106 166 -106 193 0 31 -28 28 -40 -4z"/>
<path d="M1339 3729 c-24 -28 -62 -72 -84 -98 -23 -25 -54 -64 -70 -86 -33
-44 -35 -47 -70 -90 -14 -16 -25 -35 -25 -42 0 -6 -8 -14 -18 -17 -9 -3 -23
-20 -31 -38 -8 -18 -31 -54 -50 -79 -20 -25 -45 -58 -56 -73 -11 -15 -32 -44
-47 -63 -16 -20 -28 -40 -28 -45 0 -6 -13 -27 -28 -47 -16 -20 -39 -56 -51
-81 -13 -25 -27 -48 -32 -51 -13 -7 -41 -57 -85 -149 -20 -41 -41 -82 -45 -90
-15 -25 -29 -60 -35 -88 -11 -46 12 -14 66 93 28 55 66 125 85 155 19 30 40
66 47 80 18 36 85 136 137 205 49 64 67 89 144 205 28 41 57 79 64 83 7 4 13
12 13 18 0 5 45 63 100 129 55 65 100 123 100 129 0 5 6 14 13 18 12 8 47 57
47 68 0 16 -23 -1 -61 -46z"/>
<path d="M10531 3267 c-44 -54 -77 -277 -41 -277 5 0 19 33 31 73 11 39 32 98
46 131 13 32 22 65 19 72 -7 18 -40 18 -55 1z"/>
<path d="M9815 2958 c15 -53 65 -155 112 -227 36 -53 108 -183 119 -211 11
-30 21 -44 38 -54 13 -9 20 -7 31 7 12 17 8 30 -36 112 -27 52 -49 107 -49
123 0 36 -21 57 -39 39 -11 -10 -12 -4 -6 31 4 26 3 42 -3 42 -6 0 -12 -8 -14
-17 -3 -15 -5 -15 -15 -3 -7 8 -27 31 -44 50 -17 19 -44 56 -61 83 -33 51 -43
59 -33 25z"/>
<path d="M10543 2781 c4 -36 17 -84 28 -108 12 -24 18 -50 15 -58 -3 -8 -1
-15 5 -15 5 0 13 -10 18 -22 5 -13 22 -39 37 -59 16 -20 41 -56 57 -80 30 -49
69 -104 93 -133 18 -21 17 -56 -10 -291 -32 -284 -46 -697 -26 -751 6 -15 31
-59 57 -97 60 -90 105 -227 168 -512 19 -84 39 -135 54 -135 5 0 16 -3 25 -6
13 -5 16 2 16 34 0 22 -4 42 -9 44 -8 2 -21 54 -49 188 l-5 25 22 -27 c31 -38
41 -35 41 12 0 34 -6 45 -48 84 -42 40 -50 54 -76 143 -16 54 -43 132 -59 173
-62 156 -67 185 -74 365 -5 161 -2 210 28 460 6 50 10 104 10 122 0 18 3 34 8
37 4 3 50 -38 102 -90 51 -51 97 -94 101 -94 5 0 8 20 8 45 0 25 -5 45 -11 45
-30 0 -199 207 -321 393 -56 84 -160 279 -172 324 -4 11 -14 27 -23 35 -15 12
-16 7 -10 -51z"/>
<path d="M3834 2759 c-4 -13 -7 -34 -5 -46 3 -26 -14 -319 -29 -503 -18 -214
-31 -314 -46 -334 -9 -13 -14 -47 -14 -94 0 -79 -23 -221 -46 -287 -8 -23 -14
-50 -14 -62 0 -22 -7 -48 -66 -238 -45 -149 -127 -370 -165 -449 -16 -33 -29
-62 -29 -66 0 -11 -172 -335 -200 -374 -104 -152 -186 -283 -182 -294 2 -6 17
-12 33 -12 20 0 27 4 23 14 -3 8 3 23 13 33 10 10 27 33 38 50 11 18 60 92
110 165 164 242 357 663 420 913 6 28 20 65 29 82 9 18 16 45 16 62 0 16 4 40
9 53 28 73 63 275 90 513 6 55 16 136 22 180 15 110 24 677 11 700 -9 17 -10
16 -18 -6z"/>
<path d="M4515 2728 c-2 -7 -6 -78 -8 -158 -4 -145 -23 -303 -50 -415 -21 -89
-91 -324 -107 -360 -5 -11 -16 -38 -23 -60 -60 -170 -237 -549 -305 -655 -49
-75 -194 -270 -234 -317 -19 -21 -46 -57 -62 -80 -16 -24 -33 -43 -37 -43 -5
0 -9 -7 -9 -15 0 -8 5 -15 10 -15 18 0 11 -19 -27 -73 -71 -103 -289 -339
-431 -470 -29 -26 -52 -52 -52 -57 0 -6 13 -10 28 -10 21 0 46 16 92 58 153
137 332 329 404 435 20 29 58 82 84 118 120 168 145 205 194 287 47 77 63 104
111 176 6 10 26 37 43 60 17 22 54 79 84 126 29 47 68 108 86 136 19 28 34 57
34 66 0 8 8 26 18 39 26 34 121 224 176 351 69 164 129 375 130 466 1 48 -3
76 -10 79 -14 5 -23 -17 -33 -77 -12 -66 -59 -236 -81 -289 -10 -25 -33 -84
-50 -131 -18 -47 -45 -112 -60 -145 -16 -33 -33 -72 -39 -87 -6 -16 -15 -28
-21 -28 -12 0 -2 58 16 87 7 12 18 39 23 60 5 21 17 58 26 83 38 101 76 267
114 490 18 108 30 287 21 326 -11 46 -45 72 -55 42z"/>
<path d="M9508 2723 c-28 -4 -43 -27 -31 -48 6 -10 17 -8 52 9 74 35 65 52
-21 39z"/>
<path d="M8277 2683 c-3 -5 -17 -56 -31 -114 -14 -58 -30 -118 -35 -132 -15
-38 6 -46 34 -13 21 25 55 162 55 221 0 25 -16 50 -23 38z"/>
<path d="M9335 2649 c-33 -16 -67 -33 -75 -38 -8 -5 -36 -19 -63 -31 -52 -24
-111 -76 -101 -91 8 -14 57 -10 78 6 23 17 56 20 56 4 0 -6 15 -29 34 -52 18
-23 35 -49 38 -57 3 -11 9 -7 22 13 22 33 15 69 -19 103 -14 14 -25 31 -25 38
0 7 26 26 57 43 64 34 91 64 71 80 -9 7 -31 2 -73 -18z"/>
<path d="M9630 2630 c0 -22 11 -29 100 -60 36 -12 98 -38 139 -56 84 -38 90
-39 117 -20 19 14 19 15 -1 22 -11 5 -29 16 -39 26 -11 10 -27 18 -36 18 -9 0
-20 4 -25 8 -6 5 -44 19 -85 31 -41 13 -88 29 -103 37 -41 20 -67 18 -67 -6z"/>
<path d="M9020 2478 c-20 -33 -27 -68 -12 -68 17 1 73 62 70 78 -6 30 -36 25
-58 -10z"/>
<path d="M10610 2491 c0 -12 5 -21 10 -21 6 0 10 6 10 14 0 8 -4 18 -10 21 -5
3 -10 -3 -10 -14z"/>
<path d="M5278 2463 c-13 -3 -17 -22 -22 -101 -3 -53 -10 -135 -15 -182 -12
-112 0 -133 33 -60 27 61 50 205 44 289 -3 55 -9 62 -40 54z"/>
<path d="M8861 2411 c-27 -37 -26 -57 1 -72 19 -10 25 -8 50 20 15 17 28 42
28 56 0 38 -51 35 -79 -4z"/>
<path d="M8699 2381 c-93 -22 -99 -25 -99 -58 l0 -26 72 7 c101 9 117 15 124
42 7 26 -1 55 -13 53 -4 0 -42 -9 -84 -18z"/>
<path d="M9376 2334 c-4 -16 -1 -35 8 -48 8 -12 16 -33 18 -47 l3 -24 23 25
c28 30 28 53 0 90 -27 37 -44 38 -52 4z"/>
<path d="M10157 2333 c-27 -50 -32 -233 -11 -401 l7 -52 -49 2 c-27 1 -56 -1
-65 -5 -10 -5 -23 -2 -33 9 -9 9 -54 29 -99 44 -45 16 -116 47 -157 70 -80 44
-105 44 -105 -1 0 -44 161 -123 275 -135 55 -6 150 -41 150 -55 0 -15 -111
-104 -163 -131 -29 -16 -88 -40 -132 -54 -69 -23 -96 -27 -195 -27 -64 1 -121
-4 -127 -9 -7 -6 -13 -22 -13 -37 l0 -26 132 1 c159 1 252 20 333 70 32 19 60
34 62 34 9 0 73 53 118 96 51 50 98 144 131 263 25 92 118 231 175 262 46 25
63 61 34 72 -40 16 -113 -43 -182 -144 -25 -39 -51 -68 -57 -66 -12 4 -12 15
-1 140 7 76 6 87 -8 87 -9 0 -18 -3 -20 -7z"/>
<path d="M8838 2268 c-31 -32 -35 -63 -14 -93 7 -11 42 -74 76 -140 78 -149
128 -223 195 -289 63 -61 168 -139 217 -159 20 -8 39 -20 43 -26 12 -21 35 9
35 46 0 26 -4 34 -14 30 -12 -5 -83 26 -96 42 -3 3 -32 26 -65 50 -88 65 -132
109 -173 171 -20 30 -39 57 -42 60 -3 3 -9 13 -15 22 -5 9 -32 48 -58 87 -58
85 -80 150 -65 192 14 40 8 42 -24 7z"/>
<path d="M9480 2211 c0 -17 5 -31 10 -31 6 0 10 11 10 24 0 14 -4 28 -10 31
-6 4 -10 -7 -10 -24z"/>
<path d="M9532 2138 c-22 -22 -15 -38 12 -28 32 12 50 -21 37 -67 -11 -38 -9
-39 24 -17 35 23 31 55 -11 92 -40 36 -45 37 -62 20z"/>
<path d="M9480 1630 c0 -5 5 -10 10 -10 6 0 10 5 10 10 0 6 -4 10 -10 10 -5 0
-10 -4 -10 -10z"/>
<path d="M10190 1096 c-5 -15 -13 -39 -16 -54 -36 -157 -155 -437 -192 -450
-16 -5 -6 47 21 108 24 57 127 363 123 367 -6 6 -48 -96 -224 -537 -39 -96
-102 -249 -140 -339 -39 -90 -68 -170 -65 -177 4 -11 51 -14 250 -14 212 0
244 2 234 14 -10 12 -5 37 23 123 53 164 105 316 115 338 5 11 23 56 40 100
16 44 41 106 55 138 l26 58 -25 44 c-45 76 -77 85 -90 23 -4 -18 -33 -100 -65
-183 -32 -82 -60 -158 -64 -167 -13 -42 -40 -6 -30 40 14 62 77 257 105 323
31 77 36 118 17 137 -23 23 -33 11 -55 -67 -29 -103 -83 -232 -95 -225 -15 9
2 92 44 214 48 142 55 182 34 199 -13 11 -17 9 -26 -13z"/>
<path d="M10465 684 c-8 -20 -15 -40 -15 -44 0 -11 -62 -172 -88 -230 -11 -25
-41 -101 -67 -170 -26 -69 -55 -138 -63 -155 -8 -16 -18 -37 -23 -46 -12 -26
11 -39 70 -39 41 0 52 3 44 11 -7 7 -8 18 -3 28 5 9 32 79 60 156 28 77 78
205 111 284 51 121 60 149 54 180 -13 71 -55 84 -80 25z"/>
<path d="M3646 594 c-4 -10 -1 -14 6 -12 15 5 23 28 10 28 -5 0 -13 -7 -16
-16z"/>
<path d="M6537 596 c-3 -8 -2 -18 3 -21 13 -8 24 15 12 27 -6 6 -11 4 -15 -6z"/>
<path d="M6802 590 c0 -14 2 -19 5 -12 2 6 2 18 0 25 -3 6 -5 1 -5 -13z"/>
<path d="M10585 550 c-8 -16 -15 -34 -15 -40 0 -20 114 -130 182 -176 81 -54
169 -94 207 -94 58 0 95 66 76 137 l-8 28 -13 -32 c-8 -18 -25 -40 -39 -49
-24 -16 -29 -15 -83 5 -78 30 -123 63 -174 128 -67 87 -99 123 -109 123 -5 0
-15 -13 -24 -30z m42 -52 c-3 -7 -5 -2 -5 12 0 14 2 19 5 13 2 -7 2 -19 0 -25z"/>
<path d="M6375 409 c-10 -15 3 -25 16 -12 7 7 7 13 1 17 -6 3 -14 1 -17 -5z"/>
<path d="M10504 319 c-33 -67 -106 -290 -100 -306 3 -7 15 -13 28 -13 15 0 19
3 12 10 -8 8 -1 38 23 101 40 108 65 202 61 231 -2 17 -7 13 -24 -23z"/>
<path d="M6080 300 c0 -5 5 -10 10 -10 6 0 10 5 10 10 0 6 -4 10 -10 10 -5 0
-10 -4 -10 -10z"/>
<path d="M6198 283 c6 -2 18 -2 25 0 6 3 1 5 -13 5 -14 0 -19 -2 -12 -5z"/>
<path d="M6430 279 c0 -5 5 -7 10 -4 6 3 10 8 10 11 0 2 -4 4 -10 4 -5 0 -10
-5 -10 -11z"/>
<path d="M6386 225 c-11 -8 -17 -17 -14 -20 2 -3 13 4 23 15 21 23 18 25 -9 5z"/>
<path d="M6326 191 c-3 -5 3 -11 14 -14 13 -3 20 0 20 9 0 15 -26 19 -34 5z"/>
<path d="M5850 50 c0 -5 5 -10 10 -10 6 0 10 5 10 10 0 6 -4 10 -10 10 -5 0
-10 -4 -10 -10z"/>
<path d="M6235 29 c-4 -6 -4 -13 -1 -16 8 -8 36 5 36 17 0 13 -27 13 -35 -1z"/>
</g>
</svg>
